<svg
 xmlns="http://www.w3.org/2000/svg"
 xmlns:xlink="http://www.w3.org/1999/xlink"
 width="163.5px" height="44.5px">
<path fill-rule="evenodd"  stroke="rgb(255, 255, 255)" stroke-width="1px" stroke-linecap="butt" stroke-linejoin="miter" fill="rgb(255, 255, 255)"
 d="M152.069,37.025 C151.606,38.196 151.151,39.183 150.704,39.986 C150.257,40.787 149.763,41.443 149.224,41.952 C148.684,42.461 148.090,42.831 147.442,43.062 C146.795,43.294 146.023,43.409 145.129,43.409 C144.666,43.409 144.204,43.378 143.741,43.317 C143.278,43.255 142.831,43.147 142.399,42.993 L142.399,39.384 C142.770,39.507 143.147,39.631 143.533,39.754 C143.918,39.877 144.311,39.939 144.713,39.939 C145.514,39.939 146.162,39.754 146.656,39.384 C147.149,39.014 147.581,38.474 147.951,37.765 L149.571,33.740 L140.086,9.959 L144.528,9.959 L151.514,29.530 L151.606,29.530 L158.315,9.959 L162.479,9.959 L152.069,37.025 ZM136.200,34.388 C135.183,34.388 134.373,34.102 133.771,33.532 C133.170,32.961 132.869,32.028 132.869,30.733 C131.789,32.028 130.533,32.961 129.099,33.532 C127.664,34.102 126.115,34.388 124.449,34.388 C123.369,34.388 122.351,34.272 121.395,34.041 C120.439,33.809 119.598,33.424 118.874,32.884 C118.149,32.345 117.579,31.651 117.162,30.802 C116.746,29.954 116.538,28.928 116.538,27.725 C116.538,26.368 116.769,25.258 117.232,24.394 C117.694,23.531 118.303,22.829 119.059,22.289 C119.814,21.750 120.678,21.341 121.650,21.063 C122.621,20.785 123.616,20.554 124.634,20.369 C125.713,20.154 126.739,19.992 127.711,19.883 C128.682,19.776 129.538,19.622 130.278,19.421 C131.019,19.220 131.604,18.928 132.037,18.542 C132.468,18.156 132.684,17.593 132.684,16.853 C132.684,15.990 132.522,15.296 132.198,14.771 C131.875,14.247 131.458,13.846 130.949,13.568 C130.440,13.290 129.869,13.105 129.237,13.013 C128.605,12.920 127.980,12.874 127.364,12.874 C125.698,12.874 124.310,13.191 123.200,13.823 C122.089,14.455 121.488,15.650 121.395,17.408 L117.463,17.408 C117.524,15.928 117.833,14.678 118.388,13.661 C118.943,12.643 119.684,11.818 120.609,11.185 C121.534,10.554 122.598,10.098 123.801,9.821 C125.004,9.543 126.269,9.404 127.595,9.404 C128.674,9.404 129.746,9.481 130.810,9.635 C131.875,9.790 132.838,10.106 133.702,10.584 C134.565,11.062 135.259,11.733 135.784,12.596 C136.308,13.460 136.571,14.586 136.571,15.974 L136.571,28.280 C136.571,29.206 136.624,29.885 136.732,30.316 C136.840,30.748 137.202,30.964 137.820,30.964 C138.159,30.964 138.560,30.887 139.023,30.733 L139.023,33.786 C138.344,34.187 137.403,34.388 136.200,34.388 ZM132.638,21.526 C132.144,21.896 131.497,22.166 130.695,22.335 C129.892,22.505 129.052,22.644 128.173,22.752 C127.294,22.860 126.407,22.983 125.513,23.122 C124.618,23.261 123.816,23.485 123.107,23.793 C122.397,24.101 121.819,24.541 121.372,25.111 C120.925,25.682 120.701,26.461 120.701,27.448 C120.701,28.095 120.832,28.643 121.095,29.090 C121.356,29.538 121.696,29.900 122.113,30.177 C122.529,30.455 123.022,30.656 123.593,30.779 C124.163,30.902 124.742,30.964 125.328,30.964 C126.623,30.964 127.734,30.787 128.659,30.432 C129.584,30.078 130.340,29.630 130.926,29.090 C131.512,28.551 131.944,27.965 132.222,27.332 C132.499,26.700 132.638,26.106 132.638,25.551 L132.638,21.526 ZM109.320,29.368 C108.025,30.833 106.375,31.951 104.370,32.722 C102.365,33.493 99.990,33.879 97.245,33.879 L85.910,33.879 L85.910,0.845 L97.245,0.845 C102.334,0.845 106.251,2.140 108.997,4.731 C111.741,7.322 113.114,11.271 113.114,16.575 C113.114,19.351 112.806,21.811 112.189,23.955 C111.572,26.099 110.616,27.903 109.320,29.368 ZM108.141,11.879 C107.755,10.322 107.123,8.996 106.244,7.901 C105.365,6.806 104.231,5.973 102.843,5.402 C101.455,4.832 99.743,4.546 97.708,4.546 L90.305,4.546 L90.305,30.177 L97.615,30.177 C98.108,30.177 98.726,30.139 99.466,30.062 C100.206,29.985 100.993,29.800 101.825,29.506 C102.658,29.214 103.483,28.789 104.301,28.234 C105.117,27.679 105.851,26.924 106.498,25.967 C107.146,25.012 107.678,23.816 108.094,22.382 C108.511,20.947 108.719,19.212 108.719,17.177 C108.719,15.203 108.526,13.437 108.141,11.879 ZM76.981,17.339 C76.241,18.218 75.392,19.012 74.436,19.721 C73.480,20.431 72.493,21.109 71.475,21.757 C70.457,22.374 69.440,22.983 68.422,23.585 C67.404,24.186 66.471,24.826 65.623,25.505 C64.774,26.183 64.050,26.916 63.448,27.702 C62.847,28.489 62.454,29.391 62.268,30.409 L79.109,30.409 L79.109,33.879 L57.688,33.879 C57.842,31.935 58.189,30.278 58.729,28.905 C59.268,27.533 59.955,26.337 60.788,25.319 C61.621,24.302 62.561,23.407 63.610,22.636 C64.658,21.865 65.754,21.140 66.895,20.462 C68.283,19.598 69.501,18.804 70.550,18.079 C71.598,17.355 72.470,16.622 73.164,15.881 C73.858,15.141 74.382,14.339 74.737,13.476 C75.091,12.612 75.269,11.610 75.269,10.468 C75.269,9.574 75.099,8.764 74.760,8.039 C74.420,7.315 73.966,6.690 73.395,6.166 C72.824,5.641 72.153,5.240 71.383,4.963 C70.611,4.685 69.794,4.546 68.931,4.546 C67.789,4.546 66.810,4.786 65.993,5.263 C65.175,5.742 64.504,6.367 63.980,7.137 C63.455,7.908 63.078,8.780 62.847,9.751 C62.615,10.723 62.515,11.702 62.546,12.689 L58.613,12.689 C58.521,11.023 58.690,9.481 59.122,8.062 C59.554,6.644 60.225,5.418 61.135,4.384 C62.044,3.351 63.178,2.542 64.535,1.955 C65.892,1.370 67.434,1.076 69.162,1.076 C70.580,1.076 71.915,1.285 73.164,1.701 C74.413,2.117 75.500,2.719 76.426,3.505 C77.351,4.292 78.083,5.271 78.623,6.443 C79.163,7.616 79.433,8.973 79.433,10.515 C79.433,11.965 79.209,13.244 78.762,14.355 C78.315,15.465 77.721,16.460 76.981,17.339 ZM54.172,17.015 C54.665,18.542 54.913,20.184 54.913,21.942 C54.913,23.700 54.665,25.335 54.172,26.846 C53.679,28.358 52.938,29.676 51.952,30.802 C50.964,31.928 49.754,32.807 48.320,33.439 C46.886,34.071 45.212,34.388 43.300,34.388 C41.418,34.388 39.753,34.071 38.303,33.439 C36.853,32.807 35.635,31.928 34.648,30.802 C33.661,29.676 32.921,28.358 32.428,26.846 C31.934,25.335 31.687,23.700 31.687,21.942 C31.687,20.184 31.934,18.542 32.428,17.015 C32.921,15.488 33.661,14.162 34.648,13.036 C35.635,11.910 36.853,11.023 38.303,10.376 C39.753,9.728 41.418,9.404 43.300,9.404 C45.212,9.404 46.886,9.728 48.320,10.376 C49.264,10.802 50.101,11.342 50.851,11.976 L53.381,8.645 L55.674,10.387 L52.802,14.167 C53.371,15.024 53.834,15.969 54.172,17.015 ZM50.170,18.079 C50.135,17.976 50.092,17.882 50.055,17.782 L43.483,26.432 L41.966,25.279 L37.589,21.954 L39.330,19.662 L42.932,22.398 L48.463,15.119 C47.808,14.408 47.053,13.856 46.192,13.476 C45.282,13.075 44.318,12.874 43.300,12.874 C42.282,12.874 41.318,13.075 40.408,13.476 C39.498,13.877 38.704,14.463 38.026,15.234 C37.347,16.005 36.815,16.953 36.430,18.079 C36.044,19.205 35.851,20.493 35.851,21.942 C35.851,23.392 36.044,24.680 36.430,25.805 C36.815,26.932 37.347,27.872 38.026,28.627 C38.704,29.384 39.498,29.962 40.408,30.362 C41.318,30.764 42.282,30.964 43.300,30.964 C44.318,30.964 45.282,30.764 46.192,30.362 C47.101,29.962 47.896,29.384 48.574,28.627 C49.252,27.872 49.784,26.932 50.170,25.805 C50.556,24.680 50.749,23.392 50.749,21.942 C50.749,20.493 50.556,19.205 50.170,18.079 ZM24.470,29.368 C23.175,30.833 21.524,31.951 19.520,32.722 C17.515,33.493 15.140,33.879 12.395,33.879 L1.060,33.879 L1.060,0.845 L12.395,0.845 C17.484,0.845 21.401,2.140 24.146,4.731 C26.891,7.322 28.264,11.271 28.264,16.575 C28.264,19.351 27.955,21.811 27.339,23.955 C26.721,26.099 25.766,27.903 24.470,29.368 ZM23.290,11.879 C22.904,10.322 22.273,8.996 21.394,7.901 C20.515,6.806 19.381,5.973 17.993,5.402 C16.605,4.832 14.893,4.546 12.858,4.546 L5.455,4.546 L5.455,30.177 L12.765,30.177 C13.258,30.177 13.875,30.139 14.616,30.062 C15.356,29.985 16.142,29.800 16.975,29.506 C17.808,29.214 18.633,28.789 19.450,28.234 C20.267,27.679 21.000,26.924 21.648,25.967 C22.296,25.012 22.828,23.816 23.244,22.382 C23.661,20.947 23.869,19.212 23.869,17.177 C23.869,15.203 23.676,13.437 23.290,11.879 Z"/>
</svg>
